0
SECTION
2
HEADER
9
$ACADVER
1
AC1015
0
ENDSEC
0
SECTION
2
TABLES
0
TABLE
2
LAYER
70
1
0
LAYER
2
0
70
0
62
7
6
CONTINUOUS
0
ENDTAB
0
ENDSEC
0
SECTION
2
ENTITIES
0
POLYLINE
8
0
66
1
10
0
20
0
30
0
70
64
71
8
72
6
0
VERTEX
8
0
10
0
20
0
30
0
70
192
0
VERTEX
8
0
10
10
20
0
30
0
70
192
0
VERTEX
8
0
10
10
20
10
30
0
70
192
0
VERTEX
8
0
10
0
20
10
30
0
70
192
0
VERTEX
8
0
10
0
20
0
30
10
70
192
0
VERTEX
8
0
10
10
20
0
30
10
70
192
0
VERTEX
8
0
10
10
20
10
30
10
70
192
0
VERTEX
8
0
10
0
20
10
30
10
70
192
0
VERTEX
8
0
10
0
20
0
30
0
70
128
71
1
72
2
73
3
74
4
0
VERTEX
8
0
10
0
20
0
30
0
70
128
71
5
72
6
73
7
74
8
0
VERTEX
8
0
10
0
20
0
30
0
70
128
71
1
72
2
73
6
74
5
0
VERTEX
8
0
10
0
20
0
30
0
70
128
71
2
72
3
73
7
74
6
0
VERTEX
8
0
10
0
20
0
30
0
70
128
71
3
72
4
73
8
74
7
0
VERTEX
8
0
10
0
20
0
30
0
70
128
71
4
72
1
73
5
74
-8
0
SEQEND
8
0
0
POLYLINE
8
0
66
1
10
0
20
0
30
0
70
16
71
2
72
3
0
VERTEX
8
0
10
20
20
0
30
0
70
64
0
VERTEX
8
0
10
25
20
0
30
1
70
64
0
VERTEX
8
0
10
30
20
0
30
2
70
64
0
VERTEX
8
0
10
20
20
5
30
0
70
64
0
VERTEX
8
0
10
25
20
5
30
1
70
64
0
VERTEX
8
0
10
30
20
5
30
2
70
64
0
SEQEND
8
0
0
ENDSEC
0
EOF
